# Blender 4.0.2
# www.blender.org
o Circle
v 0.000000 0.015000 -0.037851
v -0.009797 0.015000 -0.036562
v -0.018926 0.015000 -0.032780
v -0.026765 0.015000 -0.026765
v -0.032780 0.015000 -0.018926
v -0.036562 0.015000 -0.009797
v -0.037851 0.015000 0.000000
v -0.036562 0.015000 0.009797
v -0.032780 0.015000 0.018926
v -0.026765 0.015000 0.026765
v -0.018926 0.015000 0.032780
v -0.009797 0.015000 0.036562
v 0.000000 0.015000 0.037851
v 0.009797 0.015000 0.036562
v 0.018926 0.015000 0.032780
v 0.026765 0.015000 0.026765
v 0.032780 0.015000 0.018926
v 0.036562 0.015000 0.009797
v 0.037851 0.015000 0.000000
v 0.036562 0.015000 -0.009797
v 0.032780 0.015000 -0.018926
v 0.026765 0.015000 -0.026765
v 0.018926 0.015000 -0.032780
v 0.009797 0.015000 -0.036562
v 0.000000 0.015000 -0.050130
v -0.012974 0.015000 -0.048421
v -0.025065 0.015000 -0.043414
v -0.035447 0.015000 -0.035447
v -0.043414 0.015000 -0.025065
v -0.048421 0.015000 -0.012974
v -0.050130 0.015000 0.000000
v -0.048421 0.015000 0.012974
v -0.043414 0.015000 0.025065
v -0.035447 0.015000 0.035447
v -0.025065 0.015000 0.043414
v -0.012974 0.015000 0.048421
v 0.000000 0.015000 0.050130
v 0.012974 0.015000 0.048421
v 0.025065 0.015000 0.043414
v 0.035447 0.015000 0.035447
v 0.043414 0.015000 0.025065
v 0.048421 0.015000 0.012974
v 0.050130 0.015000 0.000000
v 0.048421 0.015000 -0.012974
v 0.043414 0.015000 -0.025065
v 0.035447 0.015000 -0.035447
v 0.025065 0.015000 -0.043414
v 0.012974 0.015000 -0.048421
v 0.000000 -0.015000 -0.037851
v -0.009797 -0.015000 -0.036562
v -0.018926 -0.015000 -0.032780
v -0.026765 -0.015000 -0.026765
v -0.032780 -0.015000 -0.018926
v -0.036562 -0.015000 -0.009797
v -0.037851 -0.015000 0.000000
v -0.036562 -0.015000 0.009797
v -0.032780 -0.015000 0.018926
v -0.026765 -0.015000 0.026765
v -0.018926 -0.015000 0.032780
v -0.009797 -0.015000 0.036562
v 0.000000 -0.015000 0.037851
v 0.009797 -0.015000 0.036562
v 0.018926 -0.015000 0.032780
v 0.026765 -0.015000 0.026765
v 0.032780 -0.015000 0.018926
v 0.036562 -0.015000 0.009797
v 0.037851 -0.015000 0.000000
v 0.036562 -0.015000 -0.009797
v 0.032780 -0.015000 -0.018926
v 0.026765 -0.015000 -0.026765
v 0.018926 -0.015000 -0.032780
v 0.009797 -0.015000 -0.036562
v 0.000000 -0.015000 -0.050130
v -0.012974 -0.015000 -0.048421
v -0.025065 -0.015000 -0.043414
v -0.035447 -0.015000 -0.035447
v -0.043414 -0.015000 -0.025065
v -0.048421 -0.015000 -0.012974
v -0.050130 -0.015000 0.000000
v -0.048421 -0.015000 0.012974
v -0.043414 -0.015000 0.025065
v -0.035447 -0.015000 0.035447
v -0.025065 -0.015000 0.043414
v -0.012974 -0.015000 0.048421
v 0.000000 -0.015000 0.050130
v 0.012974 -0.015000 0.048421
v 0.025065 -0.015000 0.043414
v 0.035447 -0.015000 0.035447
v 0.043414 -0.015000 0.025065
v 0.048421 -0.015000 0.012974
v 0.050130 -0.015000 0.000000
v 0.048421 -0.015000 -0.012974
v 0.043414 -0.015000 -0.025065
v 0.035447 -0.015000 -0.035447
v 0.025065 -0.015000 -0.043414
v 0.012974 -0.015000 -0.048421
vn -0.0000 1.0000 -0.0000
vn -0.0000 -1.0000 -0.0000
vn -0.0000 -0.0000 1.0000
vn 0.2588 -0.0000 0.9659
vn 0.5000 -0.0000 0.8660
vn 0.7071 -0.0000 0.7071
vn 0.8660 -0.0000 0.5000
vn 0.9659 -0.0000 0.2588
vn 1.0000 -0.0000 -0.0000
vn 0.9659 -0.0000 -0.2588
vn 0.8660 -0.0000 -0.5000
vn 0.7071 -0.0000 -0.7071
vn 0.5000 -0.0000 -0.8660
vn 0.2588 -0.0000 -0.9659
vn -0.0000 -0.0000 -1.0000
vn -0.2588 -0.0000 -0.9659
vn -0.5000 -0.0000 -0.8660
vn -0.7071 -0.0000 -0.7071
vn -0.8660 -0.0000 -0.5000
vn -0.9659 -0.0000 -0.2588
vn -1.0000 -0.0000 -0.0000
vn -0.9659 -0.0000 0.2588
vn -0.8660 -0.0000 0.5000
vn -0.7071 -0.0000 0.7071
vn -0.5000 -0.0000 0.8660
vn -0.2588 -0.0000 0.9659
vt 0.000000 0.000000
s 1
f 26/1/1 27/1/1 3/1/1 2/1/1
f 27/1/1 28/1/1 4/1/1 3/1/1
f 28/1/1 29/1/1 5/1/1 4/1/1
f 29/1/1 30/1/1 6/1/1 5/1/1
f 30/1/1 31/1/1 7/1/1 6/1/1
f 31/1/1 32/1/1 8/1/1 7/1/1
f 32/1/1 33/1/1 9/1/1 8/1/1
f 33/1/1 34/1/1 10/1/1 9/1/1
f 34/1/1 35/1/1 11/1/1 10/1/1
f 35/1/1 36/1/1 12/1/1 11/1/1
f 36/1/1 37/1/1 13/1/1 12/1/1
f 37/1/1 38/1/1 14/1/1 13/1/1
f 38/1/1 39/1/1 15/1/1 14/1/1
f 39/1/1 40/1/1 16/1/1 15/1/1
f 40/1/1 41/1/1 17/1/1 16/1/1
f 41/1/1 42/1/1 18/1/1 17/1/1
f 42/1/1 43/1/1 19/1/1 18/1/1
f 43/1/1 44/1/1 20/1/1 19/1/1
f 44/1/1 45/1/1 21/1/1 20/1/1
f 45/1/1 46/1/1 22/1/1 21/1/1
f 46/1/1 47/1/1 23/1/1 22/1/1
f 47/1/1 48/1/1 24/1/1 23/1/1
f 48/1/1 25/1/1 1/1/1 24/1/1
f 25/1/1 26/1/1 2/1/1 1/1/1
f 74/1/2 50/1/2 51/1/2 75/1/2
f 75/1/2 51/1/2 52/1/2 76/1/2
f 76/1/2 52/1/2 53/1/2 77/1/2
f 77/1/2 53/1/2 54/1/2 78/1/2
f 78/1/2 54/1/2 55/1/2 79/1/2
f 79/1/2 55/1/2 56/1/2 80/1/2
f 80/1/2 56/1/2 57/1/2 81/1/2
f 81/1/2 57/1/2 58/1/2 82/1/2
f 82/1/2 58/1/2 59/1/2 83/1/2
f 83/1/2 59/1/2 60/1/2 84/1/2
f 84/1/2 60/1/2 61/1/2 85/1/2
f 85/1/2 61/1/2 62/1/2 86/1/2
f 86/1/2 62/1/2 63/1/2 87/1/2
f 87/1/2 63/1/2 64/1/2 88/1/2
f 88/1/2 64/1/2 65/1/2 89/1/2
f 89/1/2 65/1/2 66/1/2 90/1/2
f 90/1/2 66/1/2 67/1/2 91/1/2
f 91/1/2 67/1/2 68/1/2 92/1/2
f 92/1/2 68/1/2 69/1/2 93/1/2
f 93/1/2 69/1/2 70/1/2 94/1/2
f 94/1/2 70/1/2 71/1/2 95/1/2
f 95/1/2 71/1/2 72/1/2 96/1/2
f 96/1/2 72/1/2 49/1/2 73/1/2
f 73/1/2 49/1/2 50/1/2 74/1/2
f 1/1/3 2/1/4 50/1/4 49/1/3
f 2/1/4 3/1/5 51/1/5 50/1/4
f 3/1/5 4/1/6 52/1/6 51/1/5
f 4/1/6 5/1/7 53/1/7 52/1/6
f 5/1/7 6/1/8 54/1/8 53/1/7
f 6/1/8 7/1/9 55/1/9 54/1/8
f 7/1/9 8/1/10 56/1/10 55/1/9
f 8/1/10 9/1/11 57/1/11 56/1/10
f 9/1/11 10/1/12 58/1/12 57/1/11
f 10/1/12 11/1/13 59/1/13 58/1/12
f 11/1/13 12/1/14 60/1/14 59/1/13
f 12/1/14 13/1/15 61/1/15 60/1/14
f 13/1/15 14/1/16 62/1/16 61/1/15
f 14/1/16 15/1/17 63/1/17 62/1/16
f 15/1/17 16/1/18 64/1/18 63/1/17
f 16/1/18 17/1/19 65/1/19 64/1/18
f 17/1/19 18/1/20 66/1/20 65/1/19
f 18/1/20 19/1/21 67/1/21 66/1/20
f 19/1/21 20/1/22 68/1/22 67/1/21
f 20/1/22 21/1/23 69/1/23 68/1/22
f 21/1/23 22/1/24 70/1/24 69/1/23
f 22/1/24 23/1/25 71/1/25 70/1/24
f 23/1/25 24/1/26 72/1/26 71/1/25
f 24/1/26 1/1/3 49/1/3 72/1/26
f 26/1/16 25/1/15 73/1/15 74/1/16
f 27/1/17 26/1/16 74/1/16 75/1/17
f 28/1/18 27/1/17 75/1/17 76/1/18
f 29/1/19 28/1/18 76/1/18 77/1/19
f 30/1/20 29/1/19 77/1/19 78/1/20
f 31/1/21 30/1/20 78/1/20 79/1/21
f 32/1/22 31/1/21 79/1/21 80/1/22
f 33/1/23 32/1/22 80/1/22 81/1/23
f 34/1/24 33/1/23 81/1/23 82/1/24
f 35/1/25 34/1/24 82/1/24 83/1/25
f 36/1/26 35/1/25 83/1/25 84/1/26
f 37/1/3 36/1/26 84/1/26 85/1/3
f 38/1/4 37/1/3 85/1/3 86/1/4
f 39/1/5 38/1/4 86/1/4 87/1/5
f 40/1/6 39/1/5 87/1/5 88/1/6
f 41/1/7 40/1/6 88/1/6 89/1/7
f 42/1/8 41/1/7 89/1/7 90/1/8
f 43/1/9 42/1/8 90/1/8 91/1/9
f 44/1/10 43/1/9 91/1/9 92/1/10
f 45/1/11 44/1/10 92/1/10 93/1/11
f 46/1/12 45/1/11 93/1/11 94/1/12
f 47/1/13 46/1/12 94/1/12 95/1/13
f 48/1/14 47/1/13 95/1/13 96/1/14
f 25/1/15 48/1/14 96/1/14 73/1/15
